<svg width="24" height="16" viewBox="0 0 24 16" fill="none" xmlns="http://www.w3.org/2000/svg">
<path d="M15.4995 8L10.5605 11.192C10.9995 11.39 11.4865 11.5 11.9995 11.5C13.9325 11.5 15.4995 9.933 15.4995 8Z" fill="white"/>
<path d="M5.97668 13.4892C5.85568 13.7372 5.95768 14.0362 6.20568 14.1582C8.02668 15.0482 9.97668 15.5002 11.9997 15.5002C16.9007 15.5002 21.4757 12.7182 23.9377 8.24118C24.0207 8.09118 24.0207 7.90918 23.9377 7.76018C23.2607 6.52918 22.4177 5.41018 21.4307 4.43418C21.2347 4.24018 20.9167 4.24118 20.7237 4.43818C20.5297 4.63418 20.5317 4.95118 20.7277 5.14518C21.5817 5.98918 22.3197 6.94918 22.9257 8.00018C20.6097 12.0172 16.4477 14.5002 11.9997 14.5002C10.1297 14.5002 8.32868 14.0832 6.64568 13.2602C6.39768 13.1392 6.09868 13.2422 5.97668 13.4892Z" fill="white"/>
<path d="M23.2398 0.573L19.5008 2.849C17.2668 1.316 14.6828 0.5 11.9998 0.5C7.09876 0.5 2.52376 3.282 0.0617617 7.759C-0.0212383 7.909 -0.0212383 8.091 0.0617617 8.24C0.968762 9.889 2.20776 11.337 3.64576 12.499L0.239762 14.573C0.00376171 14.717 -0.0712383 15.024 0.0727617 15.26C0.166762 15.415 0.331762 15.5 0.499762 15.5C0.587762 15.5 0.677762 15.477 0.758762 15.427L23.7588 1.427C23.9948 1.283 24.0698 0.976 23.9258 0.74C23.7848 0.505 23.4768 0.43 23.2398 0.573ZM14.6958 5.773C14.0538 4.997 13.0858 4.5 11.9998 4.5C10.0668 4.5 8.49976 6.067 8.49976 8C8.49976 8.488 8.60176 8.951 8.78176 9.373L4.54976 11.949C3.16176 10.892 1.96376 9.543 1.07376 8C3.38976 3.983 7.55176 1.5 11.9998 1.5C14.3298 1.5 16.5808 2.166 18.5598 3.422L14.6958 5.773Z" fill="white"/>
</svg>
