<svg width="24" height="16" viewBox="0 0 24 16" fill="none" xmlns="http://www.w3.org/2000/svg">
<path d="M15.5005 8L10.5615 11.192C11.0005 11.39 11.4875 11.5 12.0005 11.5C13.9335 11.5 15.5005 9.933 15.5005 8Z" fill="black"/>
<path d="M5.97766 13.4892C5.85666 13.7372 5.95866 14.0362 6.20666 14.1582C8.02766 15.0482 9.97766 15.5002 12.0007 15.5002C16.9017 15.5002 21.4767 12.7182 23.9387 8.24118C24.0217 8.09118 24.0217 7.90918 23.9387 7.76018C23.2617 6.52918 22.4187 5.41018 21.4317 4.43418C21.2357 4.24018 20.9177 4.24118 20.7247 4.43818C20.5307 4.63418 20.5327 4.95118 20.7287 5.14518C21.5827 5.98918 22.3207 6.94918 22.9267 8.00018C20.6107 12.0172 16.4487 14.5002 12.0007 14.5002C10.1307 14.5002 8.32966 14.0832 6.64666 13.2602C6.39866 13.1392 6.09966 13.2422 5.97766 13.4892Z" fill="black"/>
<path d="M23.2402 0.573L19.5012 2.849C17.2672 1.316 14.6832 0.5 12.0002 0.5C7.09925 0.5 2.52425 3.282 0.06225 7.759C-0.02075 7.909 -0.02075 8.091 0.06225 8.24C0.96925 9.889 2.20825 11.337 3.64625 12.499L0.24025 14.573C0.00424999 14.717 -0.07075 15.024 0.07325 15.26C0.16725 15.415 0.33225 15.5 0.50025 15.5C0.58825 15.5 0.67825 15.477 0.75925 15.427L23.7593 1.427C23.9953 1.283 24.0703 0.976 23.9263 0.74C23.7853 0.505 23.4772 0.43 23.2402 0.573ZM14.6962 5.773C14.0542 4.997 13.0862 4.5 12.0002 4.5C10.0672 4.5 8.50025 6.067 8.50025 8C8.50025 8.488 8.60225 8.951 8.78225 9.373L4.55025 11.949C3.16225 10.892 1.96425 9.543 1.07425 8C3.39025 3.983 7.55225 1.5 12.0002 1.5C14.3302 1.5 16.5812 2.166 18.5602 3.422L14.6962 5.773Z" fill="black"/>
</svg>
